<?xml version="1.0" standalone="no"?>
<!DOCTYPE svg PUBLIC "-//W3C//DTD SVG 20010904//EN"
 "http://www.w3.org/TR/2001/REC-SVG-20010904/DTD/svg10.dtd">
<svg version="1.0" xmlns="http://www.w3.org/2000/svg"
 width="861.000000pt" height="861.000000pt" viewBox="0 0 861.000000 861.000000"
 preserveAspectRatio="xMidYMid meet">
<metadata>
Created by potrace 1.14, written by Peter Selinger 2001-2017
</metadata>
<g transform="translate(0.000000,861.000000) scale(0.100000,-0.100000)"
fill="#000000" stroke="none">
<path d="M3929 7217 c-2 -3 -456 -7 -1009 -11 -553 -4 -1081 -9 -1175 -11 -93
-2 -524 -7 -957 -10 l-788 -7 0 -1713 0 -1713 83 -6 c45 -3 242 -8 437 -11
1102 -17 2032 -43 2046 -57 7 -8 -17 -76 -31 -88 -13 -11 -368 -15 -440 -4
-49 7 -433 22 -860 34 -220 6 -438 15 -485 20 -47 5 -215 11 -375 15 -160 3
-309 8 -332 11 -27 3 -43 1 -43 -5 0 -7 56 -11 168 -11 92 0 172 -4 177 -9 6
-5 111 -11 235 -15 124 -3 339 -9 478 -13 138 -3 250 -8 247 -11 -6 -6 -134
-4 -764 13 -294 8 -536 13 -538 11 -6 -6 196 -16 472 -22 149 -3 281 -8 295
-10 21 -4 350 -15 1475 -49 230 -7 259 -11 251 -32 -3 -8 -9 -27 -12 -41 -4
-15 -10 -31 -14 -37 -3 -5 -12 -30 -19 -55 -8 -25 -22 -71 -32 -103 -11 -31
-19 -82 -19 -113 0 -31 -5 -73 -11 -93 l-11 -37 -176 1 c-175 0 -177 0 -217
-27 -49 -32 -84 -64 -113 -102 -12 -16 -49 -58 -82 -92 -69 -74 -125 -158
-135 -202 -3 -18 -10 -32 -14 -32 -4 0 -15 -24 -26 -52 -18 -53 -33 -78 -99
-173 -20 -27 -41 -63 -48 -80 -6 -16 -15 -32 -18 -35 -4 -3 -23 -51 -43 -107
-20 -56 -51 -123 -69 -150 -45 -65 -96 -175 -104 -223 -4 -22 -45 -115 -91
-207 -46 -93 -91 -191 -98 -220 -7 -28 -18 -60 -23 -70 -6 -10 -13 -45 -17
-78 -8 -60 -13 -73 -98 -243 -41 -80 -45 -96 -36 -120 6 -15 11 -65 12 -112
l1 -85 -39 -3 -40 -3 -29 88 c-15 48 -41 108 -57 133 -15 25 -37 61 -48 80
-21 39 -109 130 -125 130 -5 0 -17 6 -25 14 -29 24 -203 76 -258 76 -61 0
-141 -32 -214 -86 l-49 -36 0 -509 0 -509 2443 1 c2407 0 2441 1 2402 19 -22
11 -74 33 -115 50 -41 17 -88 37 -103 45 -16 8 -33 15 -38 15 -5 0 -42 15 -82
34 -40 18 -103 46 -142 61 -38 15 -74 31 -80 35 -5 4 -21 11 -35 15 -14 4 -53
21 -88 36 -34 16 -67 29 -72 29 -6 0 -10 4 -10 8 0 15 25 62 33 62 8 0 10 112
1 134 -5 13 -9 14 -20 5 -12 -10 -14 -2 -14 45 0 49 2 56 19 56 11 0 22 -4 25
-9 3 -4 34 -16 68 -26 35 -9 68 -20 73 -24 13 -10 130 -46 130 -40 0 2 11 -4
25 -14 13 -9 31 -17 38 -17 8 0 28 -6 45 -14 18 -8 57 -22 87 -31 96 -30 192
-69 197 -81 2 -6 14 -9 26 -7 13 3 46 -5 75 -16 60 -24 62 -24 62 -12 0 4 -21
14 -47 21 -27 7 -57 19 -67 26 -18 12 -17 13 9 20 19 5 37 1 57 -10 34 -21
153 -63 220 -79 45 -10 102 -1 172 28 14 6 18 5 14 -6 -2 -8 -29 -20 -59 -28
-30 -8 -55 -18 -57 -23 -5 -11 -90 -10 -94 1 -4 11 -138 52 -138 42 0 -4 19
-14 43 -20 23 -7 47 -17 52 -21 6 -4 25 -11 44 -15 l33 -7 -7 -147 c-4 -80 -4
-143 0 -139 4 4 11 66 14 138 7 140 9 145 64 157 15 3 27 9 27 14 0 5 9 9 19
9 16 0 118 32 181 57 8 3 28 8 45 10 16 3 33 9 36 15 3 5 26 14 50 19 24 6 57
16 74 24 16 7 57 21 90 31 33 9 65 21 70 25 20 15 35 -6 30 -42 -2 -19 -7 -81
-10 -139 -4 -58 -8 -114 -10 -125 -4 -19 -53 -47 -109 -61 -14 -3 -26 -9 -26
-14 0 -4 -19 -13 -42 -19 -24 -7 -61 -21 -83 -30 -22 -10 -66 -28 -97 -41 -32
-12 -58 -24 -58 -26 0 -2 725 -4 1610 -4 l1610 0 0 475 0 475 -56 0 c-81 0
-640 -20 -704 -25 -30 -2 -118 -7 -196 -11 -138 -7 -142 -7 -197 20 -31 14
-60 26 -66 26 -5 0 -11 5 -13 11 -2 6 -24 15 -48 19 -61 11 -92 18 -97 24 -8
8 8 26 23 26 8 0 14 5 14 10 0 6 5 10 10 10 6 0 29 12 53 27 57 37 26 43 -42
8 l-51 -25 0 28 c0 15 9 45 20 67 11 22 20 44 20 50 0 23 91 114 120 120 17 4
30 10 30 15 0 16 -19 21 -40 10 -16 -9 -20 -8 -20 6 0 32 59 143 86 161 31 20
128 26 173 12 196 -64 246 -79 257 -79 7 0 14 -4 16 -8 8 -19 240 -68 368 -77
52 -4 133 -13 179 -21 108 -18 161 -18 161 0 0 14 -78 26 -166 26 -23 0 -46 5
-49 10 -4 6 -2 34 4 63 5 28 12 75 15 102 9 83 18 118 42 166 24 49 56 69 109
69 19 0 37 5 40 10 4 6 -14 10 -46 10 -49 0 -55 -3 -94 -43 -39 -42 -43 -50
-63 -158 -12 -63 -24 -136 -28 -164 -4 -27 -11 -53 -16 -56 -4 -3 -50 0 -101
7 -187 25 -235 37 -486 122 -169 57 -261 66 -315 32 -41 -25 -73 -76 -106
-170 -13 -36 -33 -76 -46 -90 -34 -38 -77 -139 -82 -195 -2 -27 -11 -58 -19
-67 -14 -16 -18 -16 -36 -3 -12 8 -36 15 -54 15 -21 0 -40 8 -55 24 -24 26
-34 29 -84 27 -22 -1 -33 -7 -37 -21 -5 -20 -47 -36 -72 -26 -11 4 -14 15 -10
43 3 21 10 83 15 138 17 201 50 501 60 550 5 28 14 106 20 175 6 69 15 139 20
155 5 17 14 80 20 140 6 61 18 157 26 215 8 58 21 186 29 285 8 99 18 194 21
210 11 62 24 202 24 256 l1 56 57 13 c31 7 68 18 82 25 23 12 62 21 180 44 64
12 90 3 106 -35 17 -40 10 -51 -44 -73 -42 -18 -124 -109 -141 -158 -7 -21
-21 -56 -31 -78 -26 -60 -57 -153 -74 -220 -8 -33 -26 -103 -41 -155 -23 -83
-73 -287 -80 -330 -1 -8 -5 -22 -8 -30 -21 -54 -76 -412 -102 -665 -8 -82 -20
-179 -26 -215 -6 -36 -12 -117 -14 -180 -5 -153 7 -80 34 215 12 121 23 229
25 240 3 11 15 101 26 200 12 98 24 183 27 189 4 5 14 55 24 110 19 108 61
291 72 316 4 8 13 44 21 80 14 66 49 200 68 255 5 17 18 57 28 90 23 75 62
178 70 185 3 3 16 22 28 42 36 59 86 96 162 119 66 20 84 21 347 15 153 -3
373 -11 488 -19 116 -7 217 -10 225 -5 10 5 11 8 3 8 -7 0 -13 6 -13 14 0 21
-168 29 -591 30 -384 1 -402 4 -243 46 71 18 113 20 394 22 173 1 348 -2 388
-6 l72 -8 0 1926 0 1926 -158 2 c-86 1 -184 3 -217 4 -98 5 -4301 15 -4306 11z
m1932 -946 c-12 -8 -12 -18 2 -71 17 -70 7 -70 -12 0 -7 25 -18 48 -23 51 -16
10 -2 24 24 26 16 2 19 0 9 -6z m59 -286 c10 -66 10 -96 -2 -175 l-15 -95 1
145 c1 80 -2 163 -7 184 -17 90 -18 92 -4 56 8 -19 20 -71 27 -115z m-1902
-37 c8 -10 32 -141 32 -173 0 -9 -110 -43 -157 -50 -64 -8 -79 -1 -58 28 8 12
15 28 15 35 0 25 52 147 68 160 9 6 32 12 53 12 20 0 41 -6 47 -12z m68 -147
c4 -17 3 -31 0 -31 -9 0 -36 65 -36 87 0 27 29 -18 36 -56z m870 31 c-18 -16
-19 -16 -12 1 3 10 6 24 6 30 0 8 4 7 12 -1 10 -9 8 -16 -6 -30z m1229 11 c13
-35 17 -250 7 -395 -14 -189 -43 -263 -74 -190 -26 59 -8 495 23 580 10 26 34
29 44 5z m-326 -255 c-8 -61 14 -76 36 -25 11 25 15 28 20 15 15 -39 -39 -74
-72 -46 -14 11 -18 50 -6 61 11 11 24 8 22 -5z m1001 -339 c251 -7 440 -16
448 -22 6 -5 12 -18 12 -28 0 -18 -8 -19 -152 -14 -431 16 -666 26 -693 28
-16 2 -90 4 -162 5 -124 2 -133 3 -133 21 0 28 12 30 135 25 61 -2 306 -9 545
-15z m-303 -62 c16 -17 -18 -22 -140 -20 -140 2 -177 7 -177 25 0 12 304 7
317 -5z m-285 -51 c4 -6 58 -12 128 -15 103 -3 124 -1 140 14 10 9 27 14 37
11 17 -6 18 -37 15 -743 -1 -406 -4 -744 -7 -751 -3 -9 -23 2 -62 35 -32 26
-60 51 -63 54 -3 4 -25 10 -50 14 -25 4 -65 20 -89 36 -25 16 -48 29 -53 29
-5 0 -6 5 -3 10 3 6 2 10 -4 10 -6 0 -19 10 -31 22 -20 22 -20 28 -14 647 3
344 7 632 9 638 5 14 35 6 47 -11z m207 -2 c2 -2 -28 -4 -67 -4 -45 0 -72 4
-72 11 0 7 22 8 68 4 37 -4 69 -9 71 -11z m-1016 -696 c59 -39 160 -154 192
-217 22 -43 16 -78 -25 -161 -38 -77 -64 -122 -105 -175 -26 -36 -101 -115
-108 -115 -1 0 -2 53 -2 118 0 121 -4 159 -28 252 -23 92 -49 129 -110 155
-20 8 -49 15 -64 15 l-28 0 25 21 c107 87 172 128 203 129 11 0 33 -10 50 -22z
m-1323 -43 c0 -8 -8 -15 -19 -15 -10 0 -35 -11 -55 -25 -20 -14 -40 -25 -43
-25 -4 0 -25 -19 -46 -42 l-39 -42 -18 22 c-10 12 -23 22 -29 22 -30 0 -3 21
77 59 48 24 94 46 102 51 26 15 70 12 70 -5z m-10 -48 c0 -20 -51 -117 -61
-117 -13 0 -89 -76 -89 -89 0 -18 -19 -12 -30 10 -6 11 -8 34 -5 51 14 63 185
197 185 145z m1178 -90 c27 -25 56 -86 65 -134 6 -30 4 -33 -46 -56 -29 -14
-62 -28 -74 -31 -13 -4 -23 -12 -23 -17 0 -5 -6 -9 -13 -9 -7 0 -51 -25 -98
-56 -46 -31 -93 -60 -104 -65 -11 -5 -40 -23 -65 -39 -25 -16 -58 -36 -75 -45
-16 -8 -50 -28 -75 -45 -25 -16 -52 -32 -60 -35 -8 -4 -26 -12 -40 -20 -14 -8
-43 -24 -64 -36 -22 -12 -46 -27 -53 -35 -14 -14 -52 -28 -59 -22 -2 2 20 29
49 60 30 31 67 82 83 114 16 33 31 61 34 64 3 3 16 26 29 53 13 26 28 47 32
47 5 0 9 5 9 10 0 18 64 69 88 70 12 0 31 6 42 12 16 10 32 9 87 -10 77 -25
167 -32 185 -14 9 9 -1 12 -47 12 -62 0 -135 16 -169 36 -19 12 -19 12 -1 40
51 78 120 134 210 171 43 18 124 7 153 -20z m-1401 -25 c-16 -77 -24 -92 -72
-130 -27 -21 -63 -47 -80 -56 -96 -53 -217 -155 -250 -213 -32 -53 -45 -45
-45 28 0 88 80 202 210 302 30 23 64 50 74 60 11 9 25 17 32 17 6 0 17 6 24
14 14 18 68 25 94 13 13 -6 17 -16 13 -35z m101 -166 c28 -20 55 -36 61 -36 6
0 11 -4 11 -8 0 -5 19 -17 43 -28 23 -10 48 -24 55 -31 7 -7 19 -13 26 -13 7
0 36 -21 65 -47 42 -39 55 -58 67 -103 8 -30 17 -64 21 -75 3 -11 10 -62 15
-112 l10 -93 -28 -33 c-54 -63 -59 -72 -112 -179 -30 -60 -57 -108 -62 -108
-13 0 -17 93 -14 330 4 247 -10 357 -47 384 -10 7 -16 16 -12 19 3 4 -1 7 -10
7 -22 0 -22 -2 7 -35 35 -40 39 -83 40 -435 2 -293 -2 -353 -25 -370 -4 -3
-23 -39 -43 -81 l-36 -76 0 -139 c0 -100 6 -165 20 -233 11 -52 20 -111 20
-133 l0 -38 -97 0 c-76 0 -108 5 -142 20 -31 15 -65 20 -125 20 -77 0 -237 26
-264 43 -7 5 -21 25 -32 45 -12 20 -29 51 -40 67 -10 17 -40 73 -67 125 -26
52 -51 96 -55 98 -4 2 -12 19 -19 39 -7 22 -14 31 -19 24 -7 -13 82 -205 100
-216 5 -3 10 -12 10 -20 0 -12 53 -101 69 -115 14 -12 29 -48 24 -54 -9 -9
-146 -7 -159 2 -6 4 -17 25 -24 47 -12 39 -27 74 -75 180 -58 127 -89 190 -96
195 -20 14 -111 218 -142 320 -53 173 -76 260 -83 313 -4 26 -11 50 -15 53 -5
3 -9 14 -9 25 0 11 -4 18 -8 15 -20 -12 44 -263 128 -503 16 -45 34 -90 39
-100 105 -192 133 -245 128 -249 -2 -3 -21 5 -42 17 -33 20 -55 23 -174 26
l-135 3 -40 36 c-22 20 -56 46 -76 58 -37 23 -168 80 -210 92 -32 9 -42 25
-27 42 6 8 13 57 15 111 5 105 14 125 63 136 41 9 50 29 10 23 -26 -4 -31 -1
-31 16 0 47 20 95 42 98 26 4 37 28 13 28 -21 0 -14 22 31 108 19 35 34 70 34
79 0 21 39 73 54 73 20 0 42 30 29 38 -8 5 1 30 25 77 39 73 47 78 132 89 108
14 315 48 380 61 41 9 123 19 182 22 l108 5 -16 -33 c-8 -19 -19 -42 -25 -51
-21 -40 4 -190 30 -174 4 3 25 34 45 68 21 36 54 75 78 92 36 26 39 27 28 7
-15 -30 -8 -49 11 -26 7 10 29 32 48 49 19 17 59 54 88 82 30 28 68 59 86 68
l32 17 51 -48 c29 -26 69 -57 90 -68 22 -11 44 -25 49 -32 6 -7 24 -15 40 -18
27 -6 28 -5 10 6 -11 7 -24 16 -30 21 -5 4 -35 24 -65 45 -75 49 -130 106
-130 135 0 20 3 19 25 -14 13 -19 46 -52 73 -72z m1724 87 c8 -10 20 -32 26
-50 11 -32 46 -75 55 -66 7 6 -26 63 -35 63 -5 0 -8 9 -8 20 0 23 8 25 29 6 9
-7 66 -39 126 -71 179 -94 170 -88 283 -198 l53 -51 -38 -17 c-157 -70 -183
-83 -183 -90 0 -14 8 -11 79 22 36 18 89 38 116 45 53 14 48 16 215 -47 31
-12 138 -114 179 -172 49 -67 71 -153 81 -315 5 -79 6 -175 3 -213 -4 -48 -2
-69 5 -69 7 0 15 19 18 41 6 34 9 38 17 24 5 -11 6 -66 2 -141 -4 -78 -3 -129
3 -137 8 -9 32 -102 32 -122 0 -3 -7 -5 -15 -5 -20 0 -19 -14 2 -53 26 -48 23
-241 -5 -322 -16 -44 -21 -53 -21 -32 -1 16 -7 27 -15 27 -10 0 -15 -21 -18
-78 -4 -71 -8 -83 -37 -120 -47 -58 -61 -61 -61 -11 0 24 -4 38 -10 34 -5 -3
-10 -28 -10 -54 0 -30 -9 -65 -23 -93 -24 -48 -85 -110 -102 -105 -9 3 -42 88
-44 114 -1 7 15 15 35 19 65 12 104 107 70 173 -42 79 -171 200 -269 250 -78
40 -104 54 -228 128 -32 18 -81 36 -119 43 -63 11 -200 74 -200 91 0 16 175
187 230 225 63 43 78 57 102 93 36 53 10 134 -52 166 -38 20 -77 9 -136 -35
-22 -16 -42 -30 -47 -30 -13 0 147 150 166 156 9 3 17 9 17 14 0 5 8 11 18 14
10 4 27 14 38 24 10 9 36 26 56 37 21 10 40 25 42 32 7 18 1 17 -52 -14 -87
-50 -202 -143 -288 -232 -164 -173 -245 -249 -288 -271 -17 -8 -43 -24 -58
-34 -26 -17 -26 -17 -21 3 3 11 11 26 19 32 8 6 14 18 14 25 0 8 4 14 9 14 14
0 60 87 77 148 14 47 28 66 93 128 42 41 81 74 88 74 6 0 13 4 15 8 3 9 105
72 115 72 15 0 173 84 173 92 0 4 4 8 10 8 21 0 176 128 166 137 -5 5 -61 -34
-100 -69 -19 -17 -59 -45 -121 -84 -34 -21 -161 -84 -170 -84 -3 0 -19 -9 -35
-20 -17 -11 -43 -29 -60 -40 -61 -41 -87 -13 -50 53 13 23 28 51 34 62 6 10
16 25 21 31 6 7 24 35 40 63 17 28 34 51 38 51 5 0 5 5 2 10 -7 11 -55 -28
-55 -44 0 -5 -11 -24 -25 -42 -35 -45 -158 -288 -179 -351 -10 -29 -22 -53
-26 -53 -5 0 -24 6 -42 14 -18 8 -50 18 -70 21 -21 3 -38 9 -38 13 0 12 58
119 113 206 76 122 121 192 127 196 4 3 15 19 24 35 26 46 96 142 134 183 12
14 22 32 22 41 0 16 -7 9 -68 -65 -13 -16 -29 -39 -34 -51 -6 -13 -15 -23 -19
-23 -4 0 -18 -18 -30 -40 -13 -22 -26 -40 -29 -40 -4 0 -12 -11 -18 -25 -7
-14 -17 -31 -22 -38 -6 -7 -26 -37 -45 -67 -19 -30 -41 -62 -49 -71 -9 -9 -16
-19 -16 -23 0 -9 -55 -82 -82 -109 -22 -22 -49 -73 -42 -79 3 -3 -2 -8 -11
-11 -8 -4 -15 -3 -15 1 0 4 -30 22 -67 40 -82 38 -270 87 -375 96 l-76 8 -15
-29 c-42 -77 -75 -155 -91 -215 -10 -38 -22 -68 -26 -68 -5 0 -11 -13 -15 -28
-3 -16 -35 -73 -71 -128 -64 -96 -90 -144 -134 -248 -11 -27 -23 -47 -26 -44
-5 6 -11 73 -19 231 -2 59 -10 117 -15 128 -8 14 -8 30 1 56 7 21 9 59 6 92
-7 64 11 117 57 166 42 46 85 155 105 269 6 32 15 64 20 70 4 6 16 35 26 64
27 83 63 140 109 170 47 31 48 32 176 108 111 67 211 129 225 141 6 5 17 12
25 16 8 4 29 16 46 26 63 38 129 71 144 71 9 0 21 5 27 11 19 19 26 -32 27
-193 1 -82 2 -148 3 -148 6 0 113 112 138 145 47 62 75 105 75 115 0 5 6 15
13 22 8 7 23 39 35 70 23 61 43 98 53 98 3 0 13 -8 21 -17z m-1102 -551 c-41
-85 -60 -132 -60 -144 0 -8 -15 -68 -34 -134 -33 -114 -68 -194 -86 -194 -4 0
-22 -24 -39 -54 l-30 -55 4 -189 c2 -104 9 -209 14 -233 15 -64 14 -159 -1
-159 -7 -1 -71 -9 -143 -19 -71 -10 -134 -17 -140 -15 -12 5 -66 358 -65 431
0 62 30 155 73 233 33 59 77 123 90 128 4 2 5 8 1 13 -3 5 -1 9 5 9 5 0 13 10
17 23 3 12 12 29 19 37 7 8 18 33 24 55 21 79 134 196 224 232 20 8 37 19 37
24 0 5 6 9 13 10 6 0 28 11 47 23 19 13 38 22 42 20 3 -2 -2 -21 -12 -42z
m-3060 -12 c51 -5 31 -7 -90 -8 -95 0 -147 3 -135 8 24 10 135 10 225 0z m748
-27 c-43 -2 -113 -2 -155 0 -43 1 -8 3 77 3 85 0 120 -2 78 -3z m152 -3 c0 -5
-15 -10 -32 -9 -28 0 -30 2 -13 9 28 12 45 12 45 0z m40 -4 c0 -11 -19 -15
-25 -6 -3 5 1 10 9 10 9 0 16 -2 16 -4z m4465 -116 c237 -14 388 -29 399 -41
6 -5 20 -9 32 -9 59 0 22 -20 -83 -45 -64 -15 -127 -34 -141 -41 -48 -25 -100
-27 -135 -6 -32 18 -122 35 -259 47 -72 7 -70 5 -83 79 l-6 39 53 -6 c29 -4
130 -11 223 -17z m-7 -137 c27 -15 27 -15 2 -9 -28 7 -136 24 -190 30 -19 2 9
1 63 -1 61 -3 108 -10 125 -20z m-74 -14 c55 -5 108 -15 118 -20 28 -15 36
-46 32 -129 -3 -69 -2 -72 7 -30 14 64 18 130 8 130 -5 0 -9 6 -9 13 0 8 -10
19 -22 25 -16 7 -18 11 -7 11 25 1 59 -46 59 -82 0 -17 -5 -59 -11 -92 -14
-80 -16 -106 -29 -275 -6 -80 -16 -176 -21 -215 -6 -38 -18 -149 -28 -245 -9
-97 -20 -181 -24 -186 -3 -6 -13 -87 -22 -180 -9 -93 -20 -178 -25 -189 -5
-11 -16 -103 -25 -205 -9 -102 -21 -221 -26 -265 -9 -72 -27 -260 -29 -292 0
-7 -7 -13 -16 -13 -12 0 -15 6 -10 24 6 24 43 389 52 511 3 46 1 63 -5 50 -4
-11 -12 -67 -16 -125 -6 -90 -19 -210 -27 -252 -2 -7 -19 -15 -38 -18 -35 -5
-35 -5 -48 -80 -7 -41 -15 -85 -18 -97 -4 -22 -8 -23 -112 -23 -59 0 -121 4
-138 9 -21 6 -42 4 -70 -6 -43 -16 -255 -53 -266 -46 -12 7 -9 132 3 156 6 12
20 31 30 43 24 26 47 114 50 190 3 72 7 87 25 80 30 -11 76 7 96 38 18 30 19
56 2 114 -6 21 -5 22 21 12 35 -13 61 -5 96 31 23 24 29 39 29 73 0 35 5 47
25 60 35 23 62 54 86 100 12 23 42 62 67 88 48 50 64 76 115 198 l32 75 -2
210 c-1 119 -7 238 -14 275 -11 58 -12 90 -9 207 1 17 -8 53 -20 80 -14 31
-25 86 -31 157 -11 119 -8 130 41 121 14 -3 70 -10 124 -16z m1619 -26 c-7 -2
-19 -2 -25 0 -7 3 -2 5 12 5 14 0 19 -2 13 -5z m44 -9 c-3 -3 -12 -4 -19 -1
-8 3 -5 6 6 6 11 1 17 -2 13 -5z m-3576 -94 c170 -36 238 -59 339 -115 52 -29
91 -44 127 -47 64 -6 89 -27 75 -66 -9 -25 -44 -83 -78 -127 -8 -11 -27 -39
-42 -63 -27 -41 -187 -186 -247 -223 -23 -14 -49 -19 -111 -19 -86 0 -151 -9
-281 -40 -94 -23 -293 -28 -293 -8 0 22 93 213 118 241 35 40 132 222 132 249
0 7 6 24 13 38 7 14 19 46 26 73 8 26 18 47 22 47 5 0 9 6 9 13 0 12 36 77 43
77 2 0 69 -14 148 -30z m829 -133 c0 -6 -65 -73 -85 -87 -11 -8 0 8 25 37 39
44 60 62 60 50z m-2772 -247 c93 -42 121 -77 137 -167 4 -29 3 -42 -7 -45 -7
-3 -70 -3 -140 0 -106 4 -128 7 -128 20 0 19 -44 95 -85 147 -54 68 -58 65 67
65 91 0 122 -4 156 -20z m62 -240 c138 -22 195 -91 63 -77 -74 8 -116 19 -138
33 -23 16 -85 19 -85 4 0 -5 12 -10 28 -11 15 0 21 -3 15 -6 -31 -12 -8 -21
45 -17 l57 4 -61 -29 c-34 -16 -65 -35 -70 -42 -5 -9 -14 12 -25 61 -13 56
-14 77 -6 82 17 11 101 10 177 -2z m447 -106 c53 -8 102 -18 107 -22 17 -10
35 -11 42 -1 3 5 29 8 57 8 l52 -1 -50 -8 c-73 -11 -124 -35 -175 -84 -25 -23
-64 -57 -87 -75 -29 -22 -64 -67 -105 -138 -49 -81 -71 -109 -97 -122 -36 -17
-86 -88 -97 -139 -3 -15 -12 -43 -19 -62 -21 -51 -47 -193 -47 -256 -1 -40 4
-60 18 -75 24 -27 74 -53 82 -43 4 4 1 9 -7 12 -7 2 -28 17 -45 33 l-31 28
155 1 c85 0 165 3 178 6 16 5 22 2 22 -10 0 -9 -4 -16 -10 -16 -5 0 -10 -5
-10 -10 0 -6 -16 -35 -36 -64 -31 -48 -42 -56 -84 -66 -129 -31 -191 -20 -307
57 l-58 38 -7 180 c-5 145 -33 638 -41 744 -1 14 6 28 18 35 10 6 25 16 32 23
29 26 217 46 225 23 2 -6 21 -4 48 5 60 18 159 18 277 -1z m2336 -555 c37 -19
227 -222 244 -259 8 -19 23 -43 33 -52 23 -22 34 -102 28 -218 -4 -83 -7 -93
-41 -142 -20 -29 -57 -73 -82 -98 l-45 -44 -30 32 c-31 35 -37 37 -73 23 -52
-20 -74 -71 -44 -103 22 -24 35 -55 29 -64 -34 -48 -125 -60 -184 -24 -21 12
-43 20 -50 18 -15 -5 53 -48 76 -48 31 0 13 -34 -29 -55 -42 -20 -38 -20 -655
-43 -237 -10 -311 -5 -453 29 -44 10 -50 15 -68 57 -11 25 -45 72 -76 106 -31
33 -66 82 -78 108 -12 26 -26 53 -32 60 -5 7 -17 33 -25 58 -47 136 -89 209
-181 313 -26 29 -26 32 -9 38 28 11 111 -7 168 -37 28 -14 82 -55 120 -90 38
-35 72 -63 76 -64 3 0 21 -12 38 -26 17 -15 34 -23 38 -19 4 4 -4 16 -18 26
-76 60 -164 133 -170 141 -15 20 -87 60 -126 70 -114 31 11 64 212 55 126 -5
168 4 89 19 -47 9 -44 19 10 34 25 7 48 17 51 21 7 12 -1 12 -107 -11 -52 -11
-97 -20 -101 -20 -17 0 -6 21 15 29 18 8 140 60 295 127 64 27 122 10 163 -48
13 -18 28 -36 34 -40 5 -4 6 -8 0 -8 -5 0 12 -20 38 -45 27 -25 56 -45 65 -45
11 0 4 10 -21 31 -20 17 -57 59 -82 93 -24 34 -55 68 -69 76 -34 17 -33 27 3
35 18 4 64 -5 131 -25 56 -16 121 -30 144 -30 97 0 108 -8 294 -209 36 -40 64
-61 71 -57 8 5 3 14 -16 29 -49 39 -63 51 -63 59 0 4 -10 18 -22 31 -13 13
-45 48 -73 77 -53 56 -111 89 -160 90 -26 1 -27 3 -10 10 11 5 158 9 326 9
252 1 309 4 325 16 23 17 48 19 77 4z m-1513 -198 c0 -4 -35 -21 -77 -35 -43
-15 -112 -39 -153 -54 -60 -20 -86 -37 -132 -81 -32 -32 -60 -69 -64 -86 -4
-16 -10 -35 -15 -41 -14 -17 -2 -105 26 -188 41 -125 23 -162 -39 -79 -20 26
-39 53 -44 58 -43 55 -65 112 -66 176 -1 58 2 71 22 89 26 24 28 40 7 40 -19
0 -19 0 4 52 20 45 37 55 151 89 25 7 50 16 56 21 18 13 114 30 219 38 55 4
101 8 103 8 1 1 2 -2 2 -7z m-249 -154 c69 -59 168 -227 204 -347 16 -53 69
-138 123 -198 56 -62 85 -110 76 -124 -3 -4 -25 -5 -49 -1 -46 6 -161 -13
-171 -28 -3 -5 -13 -9 -23 -9 -14 0 -17 6 -13 25 8 42 -15 28 -48 -30 l-31
-55 -85 0 -85 0 -59 48 c-57 46 -70 68 -50 88 5 5 24 36 41 69 42 80 50 172
21 235 -42 95 -36 184 18 263 19 28 86 86 100 87 3 0 17 -10 31 -23z m-1046
-182 c22 -9 58 -25 81 -36 22 -10 63 -20 90 -20 27 -1 40 -4 29 -6 -11 -3 -71
-23 -134 -44 -63 -21 -120 -39 -128 -39 -10 0 -13 20 -13 84 0 95 -2 93 75 61z
m3722 -133 c8 -5 10 -21 6 -45 -5 -31 -10 -37 -30 -37 -24 0 -25 2 -18 37 10
55 16 61 42 45z m-3662 -62 c102 -23 260 -67 290 -80 11 -5 38 -14 60 -21 64
-19 217 -97 255 -130 l35 -30 -50 6 c-27 3 -61 6 -74 8 -21 2 -31 -9 -68 -79
l-43 -81 -103 -7 c-56 -3 -138 -9 -183 -12 l-80 -6 -17 53 c-9 30 -21 77 -26
104 -11 59 -41 131 -67 162 -46 53 -52 63 -59 92 -8 36 1 54 23 47 10 -3 58
-14 107 -26z m2819 -77 c-6 -9 -23 -20 -37 -24 -22 -6 -27 -4 -27 12 0 22 50
52 65 38 6 -6 6 -15 -1 -26z m134 -84 c-17 -11 -48 18 -48 45 0 11 12 33 28
49 l27 28 3 -57 c2 -38 -1 -60 -10 -65z m707 17 c-4 -50 -10 -94 -14 -97 -3
-4 -21 -5 -38 -2 -39 6 -41 19 -17 123 13 57 19 69 37 72 12 2 26 2 30 0 5 -2
6 -45 2 -96z m251 10 c-8 -34 -42 -35 -58 -1 -9 21 -8 28 7 45 19 21 19 21 38
1 14 -14 18 -27 13 -45z m-3160 33 c32 -8 44 -16 42 -28 -2 -9 3 -15 10 -13
16 3 16 5 -20 -65 -15 -28 -32 -54 -37 -57 -18 -11 -71 29 -91 69 -11 23 -16
41 -10 43 6 2 10 9 10 15 0 13 30 47 42 47 5 0 29 -5 54 -11z m2114 -14 c0 -8
6 -18 13 -22 8 -4 24 -27 37 -50 13 -24 27 -43 32 -43 17 0 7 -26 -17 -43 -27
-20 -75 -14 -75 9 0 8 -5 14 -11 14 -6 0 -8 7 -5 16 3 8 2 13 -2 10 -4 -2 -20
15 -34 39 l-26 43 36 25 c38 25 52 26 52 2z m466 -27 c11 -21 15 -47 12 -80
-6 -58 -26 -83 -58 -73 -12 4 -19 9 -16 12 3 4 0 13 -6 21 -10 11 -9 17 6 28
18 12 17 14 -7 44 -23 26 -25 34 -14 51 7 12 19 18 30 15 9 -2 17 0 17 5 0 20
20 7 36 -23z m505 -21 c10 -6 19 -15 19 -18 0 -13 -79 -61 -90 -54 -6 3 -27 1
-46 -5 -29 -10 -38 -10 -44 0 -15 24 2 47 68 88 63 40 67 41 70 22 2 -11 12
-26 23 -33z m118 1 c-2 -13 0 -28 3 -34 4 -6 2 -11 -5 -12 -7 -1 -30 -3 -52
-6 -33 -3 -37 -2 -21 7 10 7 30 24 45 39 32 33 33 33 30 6z m79 -9 c2 -18 -3
-29 -14 -33 -26 -10 -44 14 -33 42 12 31 43 25 47 -9z m-563 5 c12 -12 13 -19
4 -30 -6 -8 -17 -14 -24 -14 -19 0 -38 28 -31 45 7 20 30 19 51 -1z m765 -39
c15 -18 2 -42 -26 -49 -52 -14 -89 40 -42 61 26 11 53 7 68 -12z m-1107 -9
c20 -21 10 -61 -19 -77 -21 -11 -27 -10 -40 3 -17 17 -10 41 22 72 19 19 19
19 37 2z m305 -51 c-5 -12 -19 -20 -33 -20 -26 0 -31 16 -19 62 l6 23 28 -23
c21 -17 25 -26 18 -42z m702 1 c14 -18 14 -18 -7 -6 -12 8 -19 18 -16 23 3 4
6 7 7 5 1 -2 8 -12 16 -22z m-1415 -18 c-12 -30 -18 -33 -61 -36 -45 -3 -47
-2 -33 15 20 25 39 37 74 44 17 4 31 7 32 8 1 0 -4 -14 -12 -31z m495 1 c19
-17 45 -38 58 -46 12 -9 22 -18 22 -22 0 -10 -154 0 -167 11 -10 8 -7 17 12
40 14 16 25 34 25 39 0 16 14 10 50 -22z m323 1 c-4 -16 -13 -20 -39 -18 -47
3 -48 35 -1 40 42 4 46 2 40 -22z m367 25 c0 -12 -46 -45 -63 -45 -18 0 -17 3
7 25 24 22 56 34 56 20z m110 -19 c13 -35 2 -66 -24 -66 -28 0 -46 18 -46 45
0 46 54 62 70 21z m-250 2 c0 -12 -49 -33 -57 -25 -8 9 24 34 43 34 8 0 14 -4
14 -9z m-791 -24 c-6 -7 -15 -11 -21 -8 -5 3 -4 12 3 20 6 7 15 11 21 8 5 -3
4 -12 -3 -20z m-2176 -44 c25 -19 46 -38 47 -41 0 -9 -39 -19 -77 -19 -30 0
-33 4 -43 43 -6 23 -14 50 -17 60 -4 17 -3 17 19 5 13 -7 45 -29 71 -48z
m3307 44 c22 -9 40 -20 40 -24 0 -8 -79 -20 -91 -14 -6 4 0 54 7 54 2 0 22 -7
44 -16z m85 6 c3 -6 -1 -7 -9 -4 -18 7 -21 14 -7 14 6 0 13 -4 16 -10z m-1145
-20 c0 -21 -16 -26 -39 -11 -18 11 -5 31 20 31 12 0 19 -7 19 -20z m749 8 c-3
-29 2 -38 23 -38 38 0 10 -13 -37 -16 -52 -4 -57 6 -19 41 30 28 36 30 33 13z
m-2400 -17 c42 -11 119 -27 171 -36 82 -14 133 -24 260 -48 259 -50 244 -47
234 -56 -5 -5 -30 -16 -56 -26 -80 -30 -112 -85 -97 -167 8 -47 6 -47 -132 -9
-57 16 -158 43 -224 60 -66 18 -149 40 -185 51 -36 10 -94 26 -130 35 -143 38
-150 43 -150 104 0 33 38 71 74 71 11 1 44 9 71 20 64 24 73 24 164 1z m2021
-2 c0 -5 -18 -9 -40 -9 -40 0 -56 15 -22 22 24 5 62 -3 62 -13z m278 -4 c17
-36 17 -35 -35 -34 -42 0 -45 2 -26 11 13 6 25 19 28 29 9 26 20 24 33 -6z
m-143 -20 c0 -17 -62 -18 -68 -2 -4 12 3 15 31 13 20 0 37 -5 37 -11z m342 -1
c-3 -3 -12 -4 -19 -1 -8 3 -5 6 6 6 11 1 17 -2 13 -5z m-803 -20 c3 -9 5 -34
5 -57 l-1 -42 -8 35 c-5 19 -11 45 -15 58 -8 25 9 31 19 6z m329 9 c-7 -2 -21
-2 -30 0 -10 3 -4 5 12 5 17 0 24 -2 18 -5z m-2348 -109 c9 -4 20 -16 25 -28
6 -16 31 -28 101 -50 125 -38 169 -52 199 -64 14 -6 84 -29 156 -52 125 -39
132 -40 171 -26 56 20 63 7 10 -16 -60 -27 -105 -20 -292 47 -88 31 -180 63
-205 72 -25 8 -58 21 -75 28 -16 7 -55 20 -86 29 -31 9 -69 22 -84 30 l-27 14
43 10 c24 5 45 10 46 11 1 1 9 -2 18 -5z m1180 -34 l50 -18 -28 -11 c-16 -6
-31 -11 -35 -11 -16 -1 -80 -70 -90 -98 -9 -28 -8 -76 3 -109 6 -17 -8 -16
-73 4 -69 22 -86 46 -80 114 6 63 32 90 114 124 69 29 74 29 139 5z m53 -55
c-21 -18 -28 -33 -28 -61 0 -31 -2 -35 -15 -24 -8 7 -24 10 -35 7 -22 -6 -28
8 -7 16 6 2 9 8 4 12 -23 25 -51 -70 -35 -116 5 -16 14 -29 19 -29 12 0 11 17
-1 25 -21 13 -9 24 15 13 19 -8 28 -8 40 2 13 10 15 9 15 -9 0 -21 -44 -51
-74 -51 -23 0 -46 41 -46 83 0 50 38 100 99 132 61 32 84 32 49 0z m110 6 c26
-11 64 -22 86 -26 21 -3 35 -9 32 -12 -13 -14 -186 35 -186 52 0 9 22 5 68
-14z m196 -60 l60 -18 -30 -16 c-16 -8 -58 -23 -94 -32 -36 -10 -69 -21 -75
-25 -18 -12 -146 -43 -152 -36 -4 3 1 6 10 6 10 0 17 4 17 8 0 4 17 14 38 21
20 7 75 27 121 44 l84 31 -23 18 c-27 22 -29 22 44 -1z"/>
<path d="M3872 4051 c-17 -10 -44 -99 -32 -106 4 -3 12 9 15 27 4 18 14 45 21
61 16 29 15 31 -4 18z"/>
<path d="M3951 4008 c7 -13 18 -29 25 -36 8 -7 18 -32 24 -55 14 -54 59 -147
71 -147 14 0 11 26 -6 40 -8 7 -20 31 -26 54 -13 52 -44 117 -68 145 -24 28
-35 27 -20 -1z"/>
<path d="M4222 3682 c-31 -24 -27 -68 9 -94 25 -19 28 -19 57 -4 51 26 55 82
6 104 -33 16 -45 15 -72 -6z m69 -12 c39 -21 16 -70 -33 -70 -21 0 -29 6 -34
25 -11 44 24 68 67 45z"/>
<path d="M4265 3630 c-3 -5 -1 -10 4 -10 6 0 11 5 11 10 0 6 -2 10 -4 10 -3 0
-8 -4 -11 -10z"/>
<path d="M4200 2962 c-28 -8 -53 -52 -30 -52 6 0 10 6 10 14 0 19 34 30 66 22
43 -11 23 -84 -23 -86 -7 0 -22 9 -34 21 -26 26 -39 16 -14 -11 20 -22 74 -27
93 -8 16 16 15 73 0 85 -17 14 -50 21 -68 15z"/>
<path d="M4231 2904 c0 -11 3 -14 6 -6 3 7 2 16 -1 19 -3 4 -6 -2 -5 -13z"/>
<path d="M7022 2983 c-6 -43 -18 -148 -27 -233 -8 -85 -20 -174 -25 -198 -6
-24 -12 -91 -14 -150 -6 -127 3 -81 28 148 9 80 23 197 31 260 26 196 32 250
25 250 -4 0 -12 -35 -18 -77z"/>
<path d="M6940 2275 c0 -8 -13 -119 -29 -247 -37 -293 -45 -377 -33 -358 5 8
15 71 21 140 13 129 15 140 30 225 12 69 25 255 17 255 -3 0 -6 -7 -6 -15z"/>
<path d="M4775 2990 c-3 -5 -3 -10 2 -11 4 0 17 -2 28 -4 11 -1 43 -6 70 -9
84 -10 387 -114 445 -152 29 -19 55 -32 58 -29 9 9 -47 52 -98 76 -50 24 -237
85 -315 104 -27 6 -57 14 -65 17 -31 13 -119 18 -125 8z"/>
<path d="M4090 1432 c0 -13 31 -52 41 -52 5 0 3 14 -6 30 -14 28 -35 41 -35
22z"/>
<path d="M4284 782 c5 -8 49 -19 155 -38 13 -3 29 -6 35 -7 6 -1 13 -5 16 -8
3 -3 39 -13 80 -22 190 -41 268 -59 308 -73 23 -8 53 -14 65 -13 39 1 -35 28
-126 44 -45 9 -102 22 -127 29 -52 16 -142 37 -300 71 -41 9 -83 18 -94 21
-11 4 -16 2 -12 -4z"/>
<path d="M5093 683 c-56 -11 -108 -107 -94 -173 5 -20 7 -15 11 20 7 62 37
116 72 131 16 6 31 16 34 20 3 5 4 8 2 8 -2 -1 -13 -4 -25 -6z"/>
<path d="M8550 1693 c-14 -9 -36 -28 -49 -42 -33 -34 -9 -40 30 -7 17 14 41
29 55 32 28 7 33 34 6 34 -10 0 -29 -8 -42 -17z"/>
<path d="M7664 1448 c-3 -5 -16 -8 -30 -8 -30 0 -60 -14 -91 -43 -42 -38 -24
-46 27 -12 43 29 61 34 135 40 64 6 85 11 85 22 0 11 -13 14 -61 11 -33 -1
-63 -6 -65 -10z"/>
<path d="M8100 1333 c-8 -3 -17 -9 -20 -13 -3 -3 -22 -16 -42 -29 -42 -25 -49
-41 -18 -41 11 0 20 3 20 8 0 21 116 62 176 62 24 0 44 5 44 10 0 11 -134 13
-160 3z"/>
<path d="M7658 1280 c-30 -9 -44 -19 -94 -70 -46 -46 -25 -51 30 -6 44 36 113
66 154 66 12 0 22 5 22 10 0 12 -73 12 -112 0z"/>
<path d="M4140 475 c0 -125 0 -126 26 -135 14 -6 50 -21 80 -35 30 -14 58 -25
61 -25 4 0 26 -9 50 -20 213 -99 243 -111 249 -96 3 7 9 57 13 112 l9 99 0
-110 c1 -60 1 -115 1 -121 1 -7 31 -24 69 -40 37 -16 69 -31 72 -35 8 -10 71
-29 96 -29 14 0 25 -8 29 -21 6 -17 9 -19 16 -8 6 10 9 11 9 2 0 -9 22 -13 78
-13 l79 0 6 98 c12 172 12 169 -30 183 -21 6 -49 17 -63 24 -48 25 -151 57
-166 51 -8 -3 -14 -1 -14 4 0 6 -3 9 -7 8 -5 -1 -30 9 -58 21 -93 42 -93 42
-111 18 l-16 -22 7 22 c5 19 1 25 -27 37 -55 24 -259 97 -335 120 -40 12 -76
25 -79 29 -4 4 -16 7 -26 7 -16 0 -18 -10 -18 -125z m680 -210 c0 -13 5 -27
10 -30 12 -8 13 -35 1 -35 -4 0 -13 22 -18 50 -6 27 -6 47 -1 44 4 -3 8 -16 8
-29z m60 -194 c0 -9 -3 -11 -9 -5 -9 10 -31 94 -31 116 1 17 39 -92 40 -111z"/>
<path d="M5700 440 c-41 -15 -86 -32 -100 -38 -35 -14 -146 -51 -203 -67 -26
-8 -53 -17 -60 -22 -6 -4 -41 -17 -77 -29 -75 -25 -74 -22 -84 -177 l-7 -107
68 0 c64 0 116 15 238 69 11 5 36 15 55 21 19 7 49 19 65 25 17 7 67 27 111
45 l81 33 7 75 c10 124 8 202 -6 201 -7 -1 -47 -13 -88 -29z"/>
</g>
</svg>
